<svg width="40" height="40" viewBox="0 0 40 40" fill="none" xmlns="http://www.w3.org/2000/svg">
<path d="M40 20C40 31.0456 31.0456 40 20 40C8.95437 40 0 31.0456 0 20C0 20.0047 20 0.00226562 20 0C31.0456 0 40 8.95437 40 20Z" fill="#0052B4"/>
<path d="M20.0004 0C19.9992 0 19.9979 0.000136719 19.9966 0.000136719L20.0004 0Z" fill="#F0F0F0"/>
<path d="M19.9465 20H20C20 19.9819 20 19.9645 20 19.9465C19.9822 19.9644 19.9644 19.9822 19.9465 20Z" fill="#F0F0F0"/>
<path d="M20 10.4358C20 6.91663 20 4.61062 20 0.00100708H19.9966C8.9525 0.00280395 0 8.95632 0 20.0009H10.4348V14.125L16.3107 20.0009H19.9466C19.9645 19.9831 19.9823 19.9653 20.0001 19.9474C20.0001 18.6 20.0001 17.3977 20.0001 16.3118L14.1241 10.4358H20Z" fill="#F0F0F0"/>
<path d="M10.1184 2.60867C6.99031 4.38984 4.38984 6.99031 2.60867 10.1184V20H7.8261V7.82617V7.8261H20C20 6.18055 20 4.61289 20 2.60867H10.1184Z" fill="#D80027"/>
<path d="M20 17.5406L12.8943 10.4349H10.4348C10.4348 10.4349 10.4348 10.4349 10.4348 10.4349L19.9999 20H20C20 20 20 18.3043 20 17.5406Z" fill="#D80027"/>
<path d="M12.0621 23.4783L13.1598 25.7734L15.6385 25.2005L14.5285 27.4898L16.5217 29.0705L14.0399 29.6298L14.0469 32.1739L12.0621 30.5823L10.0774 32.1739L10.0844 29.6298L7.60251 29.0705L9.59587 27.4898L8.48571 25.2005L10.9645 25.7734L12.0621 23.4783Z" fill="#F0F0F0"/>
<path d="M29.9441 27.8261L30.4929 28.9737L31.7323 28.6872L31.1772 29.8318L32.1739 30.6222L30.933 30.9019L30.9364 32.1739L29.9441 31.378L28.9517 32.1739L28.9552 30.9019L27.7143 30.6222L28.7109 29.8318L28.1559 28.6872L29.3952 28.9737L29.9441 27.8261Z" fill="#F0F0F0"/>
<path d="M24.8385 15.6522L25.3873 16.7998L26.6266 16.5133L26.0716 17.6579L27.0683 18.4483L25.8274 18.728L25.8308 20L24.8385 19.2041L23.8462 20L23.8495 18.728L22.6087 18.4483L23.6053 17.6579L23.0503 16.5133L24.2897 16.7998L24.8385 15.6522Z" fill="#F0F0F0"/>
<path d="M29.9441 8.69562L30.4929 9.84327L31.7323 9.55679L31.1773 10.7014L32.1738 11.4917L30.933 11.7715L30.9364 13.0435L29.9441 12.2477L28.9517 13.0435L28.9552 11.7715L27.7143 11.4917L28.7109 10.7014L28.1559 9.55679L29.3952 9.84327L29.9441 8.69562Z" fill="#F0F0F0"/>
<path d="M34.4038 13.9131L34.9525 15.0607L36.1919 14.7741L35.6369 15.9188L36.6335 16.7091L35.3926 16.9889L35.396 18.2609L34.4038 17.4651L33.4114 18.2609L33.4148 16.9889L32.1739 16.7091L33.1706 15.9188L32.6156 14.7741L33.8549 15.0607L34.4038 13.9131Z" fill="#F0F0F0"/>
<path d="M31.2148 20L31.6465 21.3286H33.0435L31.9133 22.1498L32.3451 23.4783L31.2148 22.6572L30.0847 23.4783L30.5163 22.1498L29.3862 21.3286H30.7831L31.2148 20Z" fill="#F0F0F0"/>
</svg>
