<svg width="40" height="40" viewBox="0 0 40 40" fill="none" xmlns="http://www.w3.org/2000/svg">
<path d="M20 40C31.0457 40 40 31.0457 40 20C40 8.9543 31.0457 0 20 0C8.9543 0 0 8.9543 0 20C0 31.0457 8.9543 40 20 40Z" fill="#F0F0F0"/>
<path d="M4.13439 7.82361C2.56337 9.86759 1.37876 12.2235 0.688995 14.7827H11.0935L4.13439 7.82361Z" fill="#0052B4"/>
<path d="M39.311 14.7827C38.6213 12.2235 37.4366 9.86765 35.8656 7.82367L28.9066 14.7827H39.311Z" fill="#0052B4"/>
<path d="M0.688995 25.2175C1.37884 27.7767 2.56345 30.1326 4.13439 32.1765L11.0933 25.2175H0.688995Z" fill="#0052B4"/>
<path d="M32.1764 4.13446C30.1324 2.56345 27.7766 1.37884 25.2173 0.688995V11.0934L32.1764 4.13446Z" fill="#0052B4"/>
<path d="M7.82361 35.8656C9.86759 37.4366 12.2235 38.6212 14.7827 39.311V28.9067L7.82361 35.8656Z" fill="#0052B4"/>
<path d="M14.7826 0.688995C12.2234 1.37884 9.86751 2.56345 7.82361 4.13439L14.7826 11.0934V0.688995Z" fill="#0052B4"/>
<path d="M25.2174 39.311C27.7767 38.6212 30.1325 37.4366 32.1764 35.8656L25.2174 28.9067V39.311Z" fill="#0052B4"/>
<path d="M28.9066 25.2175L35.8656 32.1766C37.4366 30.1327 38.6213 27.7767 39.311 25.2175H28.9066Z" fill="#0052B4"/>
<path d="M39.8307 17.3913H22.6088H22.6087V0.169297C21.7548 0.058125 20.8841 0 20 0C19.1157 0 18.2452 0.058125 17.3913 0.169297V17.3912V17.3913H0.169297C0.058125 18.2452 0 19.1159 0 20C0 20.8843 0.058125 21.7548 0.169297 22.6087H17.3912H17.3913V39.8307C18.2452 39.9419 19.1157 40 20 40C20.8841 40 21.7548 39.942 22.6087 39.8307V22.6088V22.6087H39.8307C39.9419 21.7548 40 20.8843 40 20C40 19.1159 39.9419 18.2452 39.8307 17.3913Z" fill="#D80027"/>
<path d="M25.2174 25.2175L34.1421 34.1422C34.5526 33.7319 34.9441 33.3029 35.3177 32.8582L27.6769 25.2174H25.2174V25.2175Z" fill="#D80027"/>
<path d="M14.7826 25.2175H14.7824L5.85782 34.1421C6.26813 34.5526 6.69712 34.9441 7.1418 35.3177L14.7826 27.6768V25.2175Z" fill="#D80027"/>
<path d="M14.7826 14.7827V14.7826L5.85788 5.85782C5.44741 6.26813 5.05584 6.69712 4.68225 7.1418L12.3231 14.7827H14.7826V14.7827Z" fill="#D80027"/>
<path d="M25.2174 14.7827L34.1422 5.85789C33.7319 5.44742 33.3029 5.05586 32.8582 4.68234L25.2174 12.3232V14.7827Z" fill="#D80027"/>
</svg>
